<?xml version="1.0" standalone="no"?>
<!DOCTYPE svg PUBLIC "-//W3C//DTD SVG 20010904//EN"
 "http://www.w3.org/TR/2001/REC-SVG-20010904/DTD/svg10.dtd">
<svg version="1.0" xmlns="http://www.w3.org/2000/svg"
 width="60pt" height="60pt" viewBox="0 0 126.000000 144.000000"
 preserveAspectRatio="xMidYMid meet">

<g transform="translate(0.000000,144.000000) scale(0.100000,-0.100000)"
fill="#000000" stroke="none">
<path d="M316 1192 c-2 -4 -1 -14 5 -22 13 -22 11 -30 -6 -24 -8 3 12 -22 45
-56 92 -96 147 -186 165 -272 19 -90 19 -131 1 -171 -7 -18 -19 -69 -25 -114
-14 -99 -29 -145 -44 -136 -6 3 -7 1 -3 -6 10 -16 -3 -68 -19 -74 -28 -11 -51
7 -78 61 -26 56 -27 56 -23 19 3 -20 12 -44 20 -53 20 -19 21 -31 2 -15 -11 9
-15 5 -20 -20 -5 -26 -9 -29 -20 -20 -8 7 -17 23 -20 36 -4 14 -11 25 -17 25
-6 0 -17 7 -26 15 -14 14 -17 14 -30 -5 -11 -16 -12 -25 -4 -33 19 -19 12 -31
-8 -13 -24 22 -72 26 -78 6 -4 -13 -3 -13 6 0 9 13 11 13 11 -2 0 -11 -10 -20
-27 -24 -77 -17 -117 -32 -121 -44 -3 -8 0 -10 9 -5 11 6 12 5 1 -6 -8 -9 -12
-49 -12 -126 l0 -113 630 0 630 0 0 174 0 174 -25 6 c-16 4 -25 13 -25 26 0
10 -9 22 -20 25 -12 4 -23 18 -27 35 -3 16 -12 31 -20 34 -8 3 -11 11 -7 17 4
8 3 9 -4 5 -8 -5 -9 -13 -2 -25 5 -10 14 -38 19 -61 8 -37 7 -45 -11 -64 -12
-11 -18 -15 -14 -8 4 6 2 12 -3 12 -6 0 -11 7 -11 15 0 8 -4 15 -10 15 -5 0
-14 19 -21 43 -18 66 -30 96 -51 122 -29 37 -44 30 -16 -7 28 -37 44 -88 28
-88 -5 0 -10 -9 -10 -20 0 -11 -4 -20 -10 -20 -5 0 -10 6 -10 14 0 8 -4 18
-10 21 -6 4 -8 -7 -4 -27 l5 -33 -25 30 c-14 17 -26 36 -26 43 0 6 -4 12 -10
12 -12 0 -12 -2 -1 -33 8 -20 6 -30 -9 -47 -18 -21 -18 -21 -25 -1 -8 26 -109
101 -137 101 -44 0 -51 13 -44 73 4 32 3 72 -4 96 -6 23 -12 80 -13 127 l-2
86 45 39 c46 41 154 119 164 119 4 0 15 9 26 20 11 11 32 20 48 21 15 0 21 3
15 6 -18 7 -16 23 3 23 9 0 14 6 11 13 -2 6 -14 11 -26 10 -16 -2 -21 3 -21
20 -1 22 -1 22 -15 -3 -8 -14 -14 -19 -15 -12 0 21 -20 3 -20 -18 0 -20 -3
-23 -125 -103 -84 -55 -134 -81 -142 -73 -3 3 4 18 16 34 25 36 27 83 5 117
-22 34 -95 36 -118 3 -21 -29 -20 -82 0 -113 28 -43 9 -50 -27 -10 -19 21 -58
63 -86 95 -37 39 -53 65 -53 84 0 17 -4 25 -11 21 -6 -4 -17 2 -25 14 -16 22
-29 27 -38 13z m473 -728 c36 -14 111 -85 111 -104 0 -5 -5 -12 -10 -15 -6 -4
-8 -10 -5 -15 3 -5 -7 -28 -22 -52 -27 -41 -28 -41 -31 -16 -2 15 -11 32 -19
40 -14 11 -16 11 -11 -3 8 -20 -6 -46 -16 -30 -4 6 -3 11 2 11 6 0 9 8 8 18
-1 18 4 19 42 7 33 -10 27 9 -8 22 -17 7 -32 7 -36 2 -9 -15 -22 -10 -29 12
-4 13 0 28 12 42 18 21 18 21 -13 -1 -17 -12 -34 -19 -38 -15 -3 3 -6 -8 -6
-26 0 -18 -4 -30 -10 -26 -5 3 -20 -16 -34 -42 -28 -53 -34 -54 -12 -1 8 18
18 62 22 97 5 43 14 70 28 86 26 28 27 28 75 9z m-173 -86 c-3 -35 -11 -64
-16 -66 -6 -2 -10 -14 -10 -27 0 -13 -5 -27 -10 -30 -6 -4 -8 -11 -5 -16 4 -5
0 -9 -7 -9 -10 0 -13 10 -10 35 2 19 8 32 13 29 5 -3 9 -1 9 4 0 6 -7 13 -15
16 -18 6 -30 -16 -22 -38 4 -10 1 -13 -8 -10 -7 3 -15 14 -18 25 -7 25 11 89
29 110 8 8 14 21 14 27 0 7 14 12 31 12 l32 0 -7 -62z m-428 -70 c17 -17 15
-28 -6 -28 -11 0 -18 7 -18 20 0 23 7 25 24 8z m-68 -32 c0 -2 3 -11 6 -19 4
-11 -6 -15 -45 -16 -28 0 -51 2 -51 5 0 3 15 11 33 19 32 14 57 19 57 11z
m604 -28 c-3 -4 -12 -8 -20 -8 -8 0 -13 4 -10 8 3 5 12 9 20 9 8 0 13 -4 10
-9z"/>
<path d="M990 633 c0 -13 5 -23 10 -23 13 0 13 11 0 30 -8 12 -10 11 -10 -7z"/>
<path d="M176 485 c8 -35 10 -39 17 -28 3 5 -1 19 -9 33 l-14 25 6 -30z"/>
<path d="M1200 500 c0 -5 5 -10 11 -10 5 0 7 5 4 10 -3 6 -8 10 -11 10 -2 0
-4 -4 -4 -10z"/>
<path d="M1246 477 c3 -10 9 -15 12 -12 3 3 0 11 -7 18 -10 9 -11 8 -5 -6z"/>
<path d="M240 424 c0 -3 7 -12 15 -20 13 -13 15 -13 15 -1 0 8 -7 17 -15 21
-8 3 -15 3 -15 0z"/>
<path d="M20 395 c0 -4 6 -12 13 -18 61 -56 68 -61 62 -45 -7 17 -75 74 -75
63z"/>
<path d="M431 364 c0 -11 3 -14 6 -6 3 7 2 16 -1 19 -3 4 -6 -2 -5 -13z"/>
<path d="M150 366 c0 -2 7 -7 16 -10 8 -3 12 -2 9 4 -6 10 -25 14 -25 6z"/>
</g>
</svg>
