<?xml version="1.0" standalone="no"?>
<!DOCTYPE svg PUBLIC "-//W3C//DTD SVG 20010904//EN"
 "http://www.w3.org/TR/2001/REC-SVG-20010904/DTD/svg10.dtd">
<svg version="1.0" xmlns="http://www.w3.org/2000/svg"
 width="54pt" height="54pt" viewBox="0 0 284.000000 342.000000"
 preserveAspectRatio="xMidYMid meet">

<g transform="translate(0.000000,342.000000) scale(0.100000,-0.100000)"
fill="#000000" stroke="none">
<path d="M1685 3410 c4 -6 11 -8 16 -5 14 9 11 15 -7 15 -8 0 -12 -5 -9 -10z"/>
<path d="M1720 3414 c0 -4 8 -13 18 -20 16 -13 16 -13 0 -14 -10 0 -18 -4 -18
-10 0 -15 57 -12 63 3 4 8 16 1 36 -21 36 -37 91 -55 91 -28 0 11 9 16 30 16
20 0 30 -5 30 -15 0 -10 10 -15 30 -15 17 0 30 4 30 9 0 7 44 -3 68 -15 2 -1
0 -13 -4 -28 -6 -23 -11 -26 -54 -26 -41 0 -49 -3 -55 -22 l-8 -23 -4 23 c-3
17 -11 22 -34 22 -26 0 -29 -3 -29 -30 0 -29 1 -30 50 -30 35 0 52 5 58 16 7
13 11 14 17 3 5 -7 4 -14 -3 -17 -16 -5 -15 -59 1 -65 8 -3 38 -7 68 -10 30
-2 42 -2 27 0 -39 6 -37 33 2 33 17 0 30 -5 30 -12 0 -6 7 -3 15 8 15 19 15
19 32 -3 14 -18 30 -23 78 -25 57 -3 60 -4 63 -30 3 -24 8 -28 37 -28 27 0 32
-3 28 -18 -3 -12 4 -23 21 -32 19 -9 26 -22 26 -42 0 -25 3 -28 35 -28 32 0
35 2 35 30 0 28 -3 30 -34 30 -39 0 -55 15 -36 33 10 9 14 9 17 0 3 -7 16 -13
30 -13 13 0 31 -6 39 -14 16 -17 19 -66 4 -66 -5 0 -10 -4 -10 -10 0 -5 14
-10 30 -10 17 0 30 5 30 10 0 6 -4 10 -10 10 -16 0 -12 50 6 67 11 12 18 13
27 4 8 -8 7 -11 -6 -11 -11 0 -17 -8 -17 -25 0 -31 28 -65 53 -65 18 0 18 -1
3 -25 l-16 -25 75 0 c73 0 75 -1 75 -25 0 -20 5 -25 25 -25 l25 0 0 305 0 305
-560 0 c-308 0 -560 -3 -560 -6z m497 -220 c-3 -3 -12 -4 -19 -1 -8 3 -5 6 6
6 11 1 17 -2 13 -5z m153 -49 c10 -12 10 -15 -4 -15 -9 0 -16 7 -16 15 0 8 2
15 4 15 2 0 9 -7 16 -15z m310 -191 c0 -8 -4 -14 -10 -14 -5 0 -10 9 -10 21 0
11 5 17 10 14 6 -3 10 -13 10 -21z"/>
<path d="M1832 3280 c0 -19 2 -27 5 -17 2 9 2 25 0 35 -3 9 -5 1 -5 -18z"/>
<path d="M2343 2988 c21 -7 32 -7 40 1 8 8 0 11 -28 10 -40 -1 -40 -1 -12 -11z"/>
<path d="M1395 1650 c3 -11 2 -20 -3 -20 -5 0 11 -20 34 -44 85 -90 119 -146
134 -222 7 -40 10 -85 6 -100 -4 -16 -15 -69 -25 -117 -10 -48 -23 -93 -30
-100 -6 -6 -11 -23 -11 -38 0 -15 -6 -29 -12 -32 -22 -7 -48 5 -48 22 -1 20
-25 53 -34 44 -3 -3 2 -15 11 -26 13 -15 15 -21 6 -24 -7 -3 -13 -11 -13 -20
0 -23 -25 -9 -28 16 -2 14 -9 21 -17 17 -8 -3 -15 0 -17 6 -3 7 -12 9 -22 5
-12 -5 -16 -13 -11 -29 4 -14 3 -18 -2 -11 -13 18 -57 21 -58 4 0 -8 -20 -20
-45 -27 -61 -19 -65 -18 -68 12 -1 14 -9 32 -17 40 -13 14 -15 13 -15 -8 0
-18 -2 -20 -9 -9 -6 9 -6 22 1 34 5 10 7 21 4 24 -3 3 -10 -5 -15 -19 -10 -27
-41 -57 -41 -39 0 6 -4 11 -9 11 -4 0 -7 -13 -5 -29 3 -23 -1 -31 -17 -36 -26
-9 -18 -31 10 -28 13 2 20 -1 16 -7 -10 -17 -44 -11 -66 11 -15 15 -24 18 -34
9 -10 -8 -14 -5 -19 15 -4 14 -11 25 -16 25 -6 0 -10 10 -11 23 -1 22 -1 22
-8 -2 -3 -13 -14 -25 -24 -27 -20 -3 -22 7 -5 24 9 9 8 12 -4 12 -9 0 -18 -7
-22 -15 -3 -8 -12 -15 -20 -15 -10 0 -13 6 -9 17 4 11 3 14 -5 9 -8 -5 -12 3
-12 24 0 18 -4 29 -10 25 -5 -3 -10 -25 -10 -47 0 -42 -11 -45 -17 -5 -2 12
-8 24 -13 25 -6 2 -11 13 -11 25 -1 13 -4 7 -8 -13 -5 -26 -11 -34 -24 -32
-12 2 -17 -4 -17 -23 0 -14 -5 -25 -11 -25 -5 0 -7 5 -4 10 3 6 -1 13 -9 16
-9 3 -16 14 -16 23 -1 13 -3 13 -16 -4 -14 -19 -15 -19 -20 3 -8 27 -24 29
-24 3 0 -10 -7 -22 -16 -25 -22 -9 -24 -8 -25 12 0 14 -2 14 -8 -3 -8 -19 -8
-19 -15 3 l-8 23 -18 -21 c-13 -15 -19 -17 -23 -8 -4 10 -7 10 -15 -1 -8 -11
-13 -10 -28 5 -11 11 -24 30 -31 44 l-12 25 0 -25 c-1 -27 -36 -64 -51 -55 -6
4 -10 -2 -10 -12 -1 -17 -2 -17 -15 1 -8 11 -26 20 -39 21 -21 0 -23 -2 -13
-14 10 -12 9 -12 -10 -1 -12 8 -20 17 -17 21 2 4 -1 11 -7 15 -8 5 -9 3 -4 -6
6 -10 4 -12 -8 -7 -20 8 -22 -4 -4 -22 8 -9 8 -12 0 -7 -6 3 -14 0 -17 -6 -3
-10 -9 -8 -19 5 -14 17 -15 17 -22 0 -8 -17 -11 -25 -14 -38 0 -3 -10 -1 -21
5 -14 7 -20 7 -20 0 0 -22 -17 -8 -38 32 -20 39 -22 41 -22 16 0 -15 -7 -33
-15 -42 -13 -12 -15 -79 -15 -470 l0 -456 1420 0 1420 0 0 385 c0 342 -2 389
-17 411 -12 19 -18 22 -24 12 -6 -9 -9 -5 -10 12 -1 14 -2 30 -4 35 -1 6 -3
16 -3 23 -1 6 -7 12 -13 12 -6 0 -9 -7 -5 -15 3 -8 1 -15 -4 -15 -5 0 -6 -7
-3 -17 4 -10 2 -14 -5 -9 -6 3 -9 19 -8 34 4 32 -3 49 -14 32 -6 -9 -10 -6
-15 9 -3 11 -13 21 -21 21 -8 0 -14 9 -14 20 0 26 -7 25 -31 -2 -18 -22 -18
-22 -19 -3 0 11 12 33 26 48 31 33 27 46 -4 16 -12 -11 -26 -18 -31 -14 -5 3
-12 -1 -15 -7 -4 -7 -4 -3 -2 10 5 24 -12 30 -32 10 -9 -9 -12 -6 -12 14 0 33
-15 44 -29 21 -10 -17 -12 -17 -25 0 -7 9 -18 17 -23 17 -6 0 -16 14 -23 30
-7 17 -15 28 -18 26 -10 -10 21 -66 37 -67 10 0 11 -2 4 -6 -7 -2 -13 -9 -13
-14 0 -6 5 -7 10 -4 6 3 10 0 10 -7 0 -7 -10 -19 -21 -27 -19 -11 -21 -11 -16
4 4 9 -5 39 -20 68 -19 37 -28 47 -31 34 -2 -10 5 -25 15 -33 10 -9 13 -13 7
-10 -16 8 -24 -27 -11 -49 8 -15 7 -17 -6 -12 -12 4 -14 2 -9 -11 4 -12 -2
-10 -25 8 -18 14 -32 34 -33 45 -1 22 -39 78 -40 58 0 -6 5 -15 10 -18 17 -10
12 -45 -5 -39 -9 4 -15 0 -16 -7 0 -8 -4 -4 -9 9 -5 12 -18 22 -29 22 -11 0
-25 1 -33 3 -7 2 -3 -1 10 -7 24 -11 30 -36 9 -36 -21 0 -56 30 -51 44 3 7 -2
19 -11 26 -14 12 -16 10 -11 -13 17 -78 17 -74 -7 -72 -12 1 -30 3 -39 4 -10
0 -18 7 -18 14 0 7 -9 18 -20 25 -11 7 -20 19 -20 26 0 8 -4 17 -9 20 -5 4 -9
-15 -8 -40 1 -30 -3 -48 -10 -51 -7 -3 -13 2 -13 11 0 9 -4 16 -9 16 -5 0 -13
15 -16 33 -9 38 -40 103 -55 112 -6 4 -1 -12 11 -35 18 -35 20 -45 10 -68 -9
-19 -14 -23 -21 -13 -6 11 -9 10 -12 -5 -3 -15 -7 -12 -26 16 -21 30 -23 32
-18 10 2 -14 -1 -33 -8 -42 -11 -15 -13 -15 -24 3 -19 30 -92 79 -118 79 -23
0 -24 3 -22 63 1 34 -2 96 -6 138 -5 44 -5 83 0 92 11 19 144 127 157 127 5 0
15 7 23 15 9 8 25 15 37 15 18 0 19 2 7 10 -10 6 -11 10 -2 10 6 0 12 7 12 15
0 9 -6 12 -15 9 -10 -4 -15 0 -15 10 0 13 -3 14 -19 4 -11 -7 -22 -20 -24 -29
-6 -23 -185 -139 -214 -139 -2 0 5 13 16 29 27 37 27 71 1 99 -24 26 -47 28
-78 6 -24 -17 -31 -71 -11 -91 6 -6 9 -17 7 -24 -6 -19 -127 111 -134 143 -4
15 -10 26 -14 23 -4 -3 -10 2 -14 10 -9 24 -39 19 -31 -5z m369 -554 c44 -18
87 -66 83 -91 -3 -22 -37 -89 -41 -83 -2 1 -6 15 -10 30 -5 23 -4 26 11 21 23
-8 14 1 -16 17 -21 11 -23 10 -18 -4 3 -8 1 -18 -6 -22 -7 -4 -9 -4 -5 1 4 4
0 14 -8 22 -8 9 -13 22 -10 29 6 16 4 17 -18 8 -9 -3 -16 -15 -16 -25 0 -10
-4 -19 -8 -19 -5 0 -14 -10 -21 -22 -6 -13 -9 -15 -7 -6 3 10 8 41 12 69 6 42
25 83 42 88 1 1 18 -5 36 -13z m-137 -58 c-5 -49 -22 -117 -31 -125 -13 -13
-19 8 -8 32 7 15 8 26 2 30 -6 4 -14 -4 -18 -16 -6 -16 -11 -19 -16 -10 -18
28 27 131 57 131 16 0 18 -6 14 -42z m-327 -73 c10 -12 9 -15 -7 -15 -11 0
-20 7 -20 15 0 8 4 15 7 15 4 0 13 -7 20 -15z m-52 -33 c2 -8 -11 -12 -39 -12
-43 0 -45 13 -4 23 27 6 38 3 43 -11z m469 -8 c-3 -3 -12 -4 -19 -1 -8 3 -5 6
6 6 11 1 17 -2 13 -5z m-747 -24 c0 -5 -4 -10 -10 -10 -5 0 -10 5 -10 10 0 6
5 10 10 10 6 0 10 -4 10 -10z"/>
<path d="M1920 1231 c0 -6 4 -13 10 -16 6 -3 7 1 4 9 -7 18 -14 21 -14 7z"/>
<path d="M2146 1127 c3 -10 9 -15 12 -12 3 3 0 11 -7 18 -10 9 -11 8 -5 -6z"/>
<path d="M1345 1050 c3 -5 8 -10 11 -10 2 0 4 5 4 10 0 6 -5 10 -11 10 -5 0
-7 -4 -4 -10z"/>
<path d="M31 1014 c0 -11 3 -14 6 -6 3 7 2 16 -1 19 -3 4 -6 -2 -5 -13z"/>
<path d="M2620 1019 c0 -5 5 -7 10 -4 6 3 10 8 10 11 0 2 -4 4 -10 4 -5 0 -10
-5 -10 -11z"/>
<path d="M1200 1005 c7 -9 15 -13 17 -11 7 7 -7 26 -19 26 -6 0 -6 -6 2 -15z"/>
</g>
</svg>
